<svg xmlns="http://www.w3.org/2000/svg" viewBox="0 0 24 24" id="Phone-Scan-Qr-Code-2--Streamline-Pixel" height="24" width="24"><desc>Phone Scan Qr Code 2 Streamline Icon: https://streamlinehq.com</desc><title>phone-scan-qr-code-2</title><g><path d="M20.572499999999998 11.4225H24v1.1475h-3.4275Z" fill="#000000" stroke-width="0.75"></path><path d="M20.572499999999998 17.137500000000003h1.1400000000000001v3.4275h-1.1400000000000001Z" fill="#000000" stroke-width="0.75"></path><path d="M20.572499999999998 3.4275h1.1400000000000001v3.4275h-1.1400000000000001Z" fill="#000000" stroke-width="0.75"></path><path d="M17.145 20.565h3.4275v1.1475h-3.4275Z" fill="#000000" stroke-width="0.75"></path><path d="M17.145 2.2800000000000002h3.4275v1.1475h-3.4275Z" fill="#000000" stroke-width="0.75"></path><path d="M18.285 14.857499999999998h-3.4275v3.4275h3.4275Zm-1.1400000000000001 2.2800000000000002h-1.1475v-1.1400000000000001h1.1475Z" fill="#000000" stroke-width="0.75"></path><path d="M17.145 10.2825h1.1400000000000001v3.4275h-1.1400000000000001Z" fill="#000000" stroke-width="0.75"></path><path d="M14.857499999999998 9.1425h3.4275V5.715h-3.4275Zm1.1400000000000001 -2.2874999999999996h1.1475v1.1400000000000001h-1.1475Z" fill="#000000" stroke-width="0.75"></path><path d="m14.857499999999998 12.57 -2.2874999999999996 0 0 1.1400000000000001 3.4275 0 0 -3.4275 -1.1400000000000001 0 0 2.2874999999999996z" fill="#000000" stroke-width="0.75"></path><path d="M12.57 17.137500000000003h1.1400000000000001v1.1475h-1.1400000000000001Z" fill="#000000" stroke-width="0.75"></path><path d="M11.43 20.565h1.1400000000000001V24h-1.1400000000000001Z" fill="#000000" stroke-width="0.75"></path><path d="m10.2825 14.857499999999998 0 3.4275 1.1475 0 0 -2.2874999999999996 2.2800000000000002 0 0 -1.1400000000000001 -3.4275 0z" fill="#000000" stroke-width="0.75"></path><path d="m10.2825 9.1425 2.2874999999999996 0 0 2.2800000000000002 1.1400000000000001 0 0 -3.4275 -3.4275 0 0 1.1475z" fill="#000000" stroke-width="0.75"></path><path d="M10.2825 5.715h3.4275v1.1400000000000001h-3.4275Z" fill="#000000" stroke-width="0.75"></path><path d="M11.43 0h1.1400000000000001v3.4275h-1.1400000000000001Z" fill="#000000" stroke-width="0.75"></path><path d="M10.2825 10.2825h1.1475v3.4275h-1.1475Z" fill="#000000" stroke-width="0.75"></path><path d="M8.0025 7.995h1.1400000000000001v2.2874999999999996h-1.1400000000000001Z" fill="#000000" stroke-width="0.75"></path><path d="M5.715 14.857499999999998v3.4275h3.4275v-3.4275Zm2.2874999999999996 2.2800000000000002H6.855v-1.1400000000000001h1.1475Z" fill="#000000" stroke-width="0.75"></path><path d="m6.855 10.2825 -1.1400000000000001 0 0 3.4275 1.1400000000000001 0 0 -1.1400000000000001 2.2874999999999996 0 0 -1.1475 -2.2874999999999996 0 0 -1.1400000000000001z" fill="#000000" stroke-width="0.75"></path><path d="m5.715 5.715 0 3.4275 1.1400000000000001 0 0 -2.2874999999999996 2.2874999999999996 0 0 -1.1400000000000001 -3.4275 0z" fill="#000000" stroke-width="0.75"></path><path d="M3.4275 20.565h3.4275v1.1475H3.4275Z" fill="#000000" stroke-width="0.75"></path><path d="M3.4275 2.2800000000000002h3.4275v1.1475H3.4275Z" fill="#000000" stroke-width="0.75"></path><path d="M2.2874999999999996 17.137500000000003h1.1400000000000001v3.4275H2.2874999999999996Z" fill="#000000" stroke-width="0.75"></path><path d="M0 11.4225h3.4275v1.1475H0Z" fill="#000000" stroke-width="0.75"></path><path d="M2.2874999999999996 3.4275h1.1400000000000001v3.4275H2.2874999999999996Z" fill="#000000" stroke-width="0.75"></path></g></svg>